<?xml version="1.0" encoding="UTF-8"?>
<svg xmlns="http://www.w3.org/2000/svg" xmlns:xlink="http://www.w3.org/1999/xlink" viewBox="0 0 400 400" width="400px" height="400px">
<g id="surface97698579">
<path style=" stroke:none;fill-rule:nonzero;fill:rgb(80.000001%,80.000001%,80.000001%);fill-opacity:1;" d="M 201.15625 401.15625 C 90.699219 401.15625 1.15625 311.613281 1.15625 201.15625 C 1.15625 90.699219 90.699219 1.15625 201.15625 1.15625 C 311.613281 1.15625 401.15625 90.699219 401.15625 201.15625 C 401.15625 311.613281 311.613281 401.15625 201.15625 401.15625 Z M 201.15625 401.15625 "/>
<path style=" stroke:none;fill-rule:nonzero;fill:rgb(0%,0%,0%);fill-opacity:1;" d="M 271.859375 38.21875 C 261.300781 38.21875 252.140625 40.308594 243.699219 42.425781 C 258.496094 48.75 267.652344 56.507812 272.574219 60.027344 C 283.851562 69.871094 290.175781 79.746094 301.449219 95.941406 C 303.539062 99.460938 307.058594 104.382812 309.175781 112.113281 C 311.292969 119.152344 311.292969 124.789062 311.292969 130.425781 C 311.292969 138.183594 310.578125 144.507812 309.863281 150.832031 C 309.175781 155.78125 309.175781 157.898438 308.488281 159.300781 C 308.488281 160.015625 308.488281 160.703125 307.773438 162.105469 C 307.773438 165.625 307.773438 167.058594 308.488281 169.863281 C 308.488281 172.667969 309.175781 175.5 309.175781 180.421875 C 309.890625 189.578125 309.890625 195.90625 308.488281 203.632812 L 308.488281 206.464844 C 307.058594 212.789062 305.65625 219.140625 302.136719 224.75 C 302.851562 226.183594 303.539062 226.871094 304.253906 228.273438 C 307.773438 223.347656 310.578125 218.425781 313.382812 212.816406 C 321.855469 197.308594 326.777344 183.941406 330.296875 174.097656 C 336.621094 155.78125 340.140625 142.390625 342.257812 132.542969 C 347.183594 111.425781 347.898438 101.578125 345.78125 90.304688 C 345.78125 86.785156 344.378906 80.433594 340.855469 74.105469 C 333.101562 60.027344 321.140625 53.703125 312.695312 49.46875 C 307.058594 46.660156 292.265625 38.90625 271.859375 38.21875 Z M 119.34375 41.328125 C 111.230469 41.160156 101.332031 42.070312 90.222656 47.347656 C 86.703125 48.78125 76.140625 53.703125 67.699219 64.949219 C 62.0625 71.988281 57.855469 82.550781 55.738281 94.511719 C 53.621094 105.070312 52.90625 117.777344 57.140625 141.703125 C 59.945312 158.585938 62.777344 169.863281 68.414062 193.070312 C 69.128906 195.90625 73.335938 208.582031 82.496094 236.742188 L 83.183594 238.144531 C 84.613281 243.066406 88.820312 253.625 97.976562 264.1875 C 104.300781 271.226562 109.941406 275.460938 114.890625 275.460938 L 116.265625 275.460938 C 125.421875 275.460938 131.773438 268.421875 137.382812 262.785156 C 137.382812 262.070312 150.777344 245.898438 155.699219 240.261719 C 154.984375 239.546875 153.609375 239.546875 152.894531 238.832031 C 144.453125 233.910156 138.101562 226.183594 133.175781 217.710938 C 124.734375 202.230469 125.421875 186.746094 126.824219 178.992188 L 127.539062 167.058594 C 124.734375 148.027344 125.449219 129.738281 128.96875 111.425781 C 131.773438 95.941406 135.292969 80.460938 147.945312 64.261719 C 152.179688 58.625 157.101562 53.703125 162.023438 50.183594 C 150.777344 45.257812 138.816406 42.425781 126.824219 41.738281 C 124.542969 41.546875 122.039062 41.382812 119.34375 41.328125 Z M 207.785156 47.347656 C 204.265625 47.347656 200.746094 47.347656 197.226562 48.0625 C 183.144531 50.871094 169.78125 58.625 159.21875 71.988281 C 148.660156 85.382812 145.855469 98.03125 143.050781 112.828125 C 141.621094 118.464844 141.621094 123.386719 140.90625 129.023438 C 145.140625 125.503906 150.777344 121.269531 159.21875 119.152344 C 164.140625 117.75 176.820312 113.542969 187.378906 119.867188 C 190.898438 121.984375 195.820312 126.21875 200.746094 138.183594 C 211.304688 167.746094 200.773438 198.023438 199.371094 200.828125 C 198.65625 203.632812 197.253906 205.75 196.539062 207.152344 C 195.132812 210.671875 193.730469 213.503906 192.328125 219.140625 C 191.613281 224.0625 190.898438 228.300781 190.898438 233.222656 C 193.015625 233.222656 195.132812 233.910156 197.226562 235.3125 C 200.746094 238.832031 201.460938 243.78125 202.175781 245.871094 C 203.578125 257.148438 203.578125 271.226562 203.578125 285.308594 C 203.578125 296.582031 203.578125 307.140625 204.265625 314.183594 C 205.695312 330.378906 210.617188 341.625 217.65625 347.265625 C 222.578125 351.5 228.90625 351.472656 232.425781 352.1875 L 233.855469 352.1875 C 244.414062 352.1875 261.300781 345.148438 267.625 335.300781 C 271.144531 329.664062 272.574219 324.742188 273.976562 317.703125 C 274.691406 313.46875 274.664062 311.375 275.378906 307.140625 C 275.378906 305.023438 276.09375 301.503906 276.09375 297.296875 C 276.09375 293.777344 276.78125 289.542969 277.496094 284.59375 C 278.210938 272.628906 280.300781 258.578125 281.015625 250.820312 C 281.730469 241.664062 285.941406 233.910156 289.460938 228.988281 C 284.539062 228.273438 279.613281 224.0625 276.808594 217.023438 C 272.574219 209.269531 271.859375 207.152344 271.144531 203.632812 C 270.457031 200.828125 269.054688 197.308594 264.105469 186.746094 C 253.542969 162.820312 252.167969 155.78125 252.167969 150.144531 C 251.453125 142.390625 250.738281 131.855469 259.210938 124.816406 C 271.859375 113.542969 288.058594 114.257812 296.5 117.0625 L 296.5 115.632812 C 295.097656 110.023438 292.292969 105.785156 290.175781 102.980469 C 279.613281 86.785156 273.976562 78.34375 264.105469 69.898438 C 259.898438 66.378906 249.335938 57.910156 233.855469 52.300781 C 226.816406 50.183594 218.34375 47.347656 207.785156 47.347656 Z M 285.609375 129.90625 C 280.496094 129.546875 273.976562 130.425781 268.339844 135.375 C 265.535156 138.183594 265.535156 143.820312 266.25 148.742188 C 266.25 152.261719 266.9375 157.183594 277.496094 181.136719 C 282.417969 192.382812 283.820312 195.90625 284.539062 198.738281 C 285.253906 201.542969 285.941406 202.945312 290.175781 210.671875 C 290.890625 212.101562 291.578125 213.503906 292.980469 214.90625 C 294.382812 212.789062 295.097656 209.269531 295.785156 203.632812 L 296.5 201.542969 C 297.902344 195.21875 297.214844 190.265625 297.214844 181.824219 C 297.214844 177.589844 296.5 174.785156 296.5 172.667969 C 295.785156 169.148438 295.785156 166.34375 295.785156 162.105469 C 294.382812 159.988281 294.382812 159.300781 295.097656 157.871094 C 295.097656 156.46875 295.785156 154.378906 296.5 150.144531 C 297.214844 144.507812 297.929688 139.585938 297.929688 133.945312 C 296.5 133.230469 295.8125 132.542969 294.410156 131.855469 C 294.410156 131.855469 290.695312 130.261719 285.609375 129.90625 Z M 175.527344 132.683594 C 171.042969 132.160156 165.902344 133.617188 162.738281 134.660156 C 154.984375 136.78125 150.089844 141.703125 146.570312 144.507812 C 144.453125 146.625 142.335938 148.742188 140.21875 151.546875 C 140.21875 156.46875 140.90625 161.417969 141.621094 166.34375 L 141.621094 167.058594 L 140.21875 181.136719 C 138.816406 187.460938 138.101562 199.425781 145.140625 211.386719 C 148.660156 218.425781 153.609375 224.0625 159.933594 227.585938 C 164.167969 230.390625 169.78125 232.507812 176.105469 233.9375 C 176.105469 228.988281 176.820312 223.347656 177.535156 218.425781 C 178.9375 211.386719 180.339844 207.867188 182.457031 203.632812 C 183.171875 201.542969 183.859375 200.140625 185.289062 198.023438 C 185.976562 195.90625 195.820312 169.148438 186.664062 144.507812 C 184.574219 138.871094 182.457031 135.347656 179.625 133.945312 C 178.414062 133.230469 176.984375 132.847656 175.527344 132.683594 Z M 278.816406 136.695312 C 280.660156 136.585938 282.417969 136.75 283.132812 137.46875 C 285.253906 138.871094 282.417969 142.390625 281.703125 143.105469 C 281.015625 143.820312 279.613281 145.222656 277.496094 145.9375 C 274.691406 146.625 272.574219 144.507812 271.859375 144.507812 C 271.144531 143.792969 269.054688 141.703125 269.769531 139.585938 C 270.457031 138.183594 271.171875 138.183594 273.976562 137.46875 C 275.023438 137.109375 276.976562 136.78125 278.816406 136.695312 Z M 172.996094 142.527344 C 175.363281 142.363281 177.34375 143.269531 178.9375 143.792969 C 181.054688 144.507812 183.144531 145.222656 183.144531 146.625 C 183.859375 148.742188 181.769531 150.144531 181.054688 150.832031 C 178.9375 152.949219 175.417969 152.976562 175.417969 152.976562 C 171.898438 152.976562 169.78125 150.859375 168.378906 148.742188 C 167.664062 148.027344 166.976562 146.625 167.691406 145.222656 C 168.378906 143.820312 169.78125 143.105469 170.496094 143.105469 C 171.375 142.746094 172.199219 142.582031 172.996094 142.527344 Z M 302.136719 234.625 C 298.617188 239.546875 293.695312 245.898438 292.980469 254.34375 C 292.980469 255.746094 292.980469 256.460938 292.265625 257.863281 C 297.902344 259.265625 302.851562 259.265625 307.773438 258.578125 C 319.050781 257.148438 326.777344 251.507812 328.179688 250.105469 C 333.101562 246.585938 339.453125 239.546875 338.023438 236.742188 C 337.335938 235.339844 335.21875 236.027344 323.945312 236.742188 C 321.140625 236.742188 312.695312 238.859375 307.058594 237.457031 L 305.65625 237.457031 C 304.253906 236.742188 302.851562 236.027344 302.136719 234.625 Z M 179.625 248.703125 C 178.222656 250.820312 176.132812 252.222656 174.730469 253.625 C 169.09375 257.148438 162.023438 259.980469 154.984375 261.382812 C 148.660156 263.5 145.140625 263.5 145.140625 265.617188 C 144.425781 268.421875 151.464844 271.941406 154.984375 273.34375 C 166.976562 278.265625 178.9375 275.460938 181.054688 274.746094 C 182.457031 274.03125 185.976562 272.628906 189.496094 270.511719 C 189.496094 262.785156 188.808594 255.746094 188.09375 250.105469 L 188.09375 249.390625 L 187.378906 249.390625 C 185.261719 249.390625 182.457031 249.417969 179.625 248.703125 Z M 179.625 248.703125 "/>
</g>
</svg>
