<svg id="visual" viewBox="0 0 900 450" width="900" height="450" xmlns="http://www.w3.org/2000/svg" xmlns:xlink="http://www.w3.org/1999/xlink" version="1.1"><rect x="0" y="0" width="900" height="450" fill="#2e343e"></rect><defs><linearGradient id="grad1_0" x1="50%" y1="100%" x2="100%" y2="0%"><stop offset="10%" stop-color="#30d5c8" stop-opacity="1"></stop><stop offset="90%" stop-color="#30d5c8" stop-opacity="1"></stop></linearGradient></defs><defs><linearGradient id="grad1_1" x1="50%" y1="100%" x2="100%" y2="0%"><stop offset="10%" stop-color="#30d5c8" stop-opacity="1"></stop><stop offset="90%" stop-color="#307f95" stop-opacity="1"></stop></linearGradient></defs><defs><linearGradient id="grad1_2" x1="50%" y1="100%" x2="100%" y2="0%"><stop offset="10%" stop-color="#2e343e" stop-opacity="1"></stop><stop offset="90%" stop-color="#307f95" stop-opacity="1"></stop></linearGradient></defs><defs><linearGradient id="grad2_0" x1="0%" y1="100%" x2="50%" y2="0%"><stop offset="10%" stop-color="#30d5c8" stop-opacity="1"></stop><stop offset="90%" stop-color="#30d5c8" stop-opacity="1"></stop></linearGradient></defs><defs><linearGradient id="grad2_1" x1="0%" y1="100%" x2="50%" y2="0%"><stop offset="10%" stop-color="#307f95" stop-opacity="1"></stop><stop offset="90%" stop-color="#30d5c8" stop-opacity="1"></stop></linearGradient></defs><defs><linearGradient id="grad2_2" x1="0%" y1="100%" x2="50%" y2="0%"><stop offset="10%" stop-color="#307f95" stop-opacity="1"></stop><stop offset="90%" stop-color="#2e343e" stop-opacity="1"></stop></linearGradient></defs><g transform="translate(900, 450)"><path d="M-247.5 0C-242.9 -46.6 -238.3 -93.1 -214.3 -123.8C-190.4 -154.4 -147 -169.1 -108 -187.1C-69 -205 -34.5 -226.3 0 -247.5L0 0Z" fill="#38576c"></path><path d="M-165 0C-161.9 -31 -158.9 -62.1 -142.9 -82.5C-126.9 -102.9 -98 -112.7 -72 -124.7C-46 -136.7 -23 -150.8 0 -165L0 0Z" fill="#1caab6"></path><path d="M-82.5 0C-81 -15.5 -79.4 -31 -71.4 -41.3C-63.5 -51.5 -49 -56.4 -36 -62.4C-23 -68.3 -11.5 -75.4 0 -82.5L0 0Z" fill="#30d5c8"></path></g><g transform="translate(0, 0)"><path d="M247.5 0C234.6 39.3 221.7 78.6 202.6 117C183.6 155.4 158.5 192.8 123.8 214.3C89 235.9 44.5 241.7 0 247.5L0 0Z" fill="#38576c"></path><path d="M165 0C156.4 26.2 147.8 52.4 135.1 78C122.4 103.6 105.7 128.5 82.5 142.9C59.3 157.3 29.7 161.1 0 165L0 0Z" fill="#1caab6"></path><path d="M82.5 0C78.2 13.1 73.9 26.2 67.5 39C61.2 51.8 52.8 64.3 41.3 71.4C29.7 78.6 14.8 80.6 0 82.5L0 0Z" fill="#30d5c8"></path></g></svg>