<svg id="visual" viewBox="0 0 1920 1080" width="1920" height="1080" xmlns="http://www.w3.org/2000/svg" xmlns:xlink="http://www.w3.org/1999/xlink" version="1.1"><rect x="0" y="0" width="1920" height="1080" fill="#2e343e"></rect><defs><linearGradient id="grad1_0" x1="43.8%" y1="0%" x2="100%" y2="100%"><stop offset="14.444444444444446%" stop-color="#30d5c8" stop-opacity="1"></stop><stop offset="85.55555555555554%" stop-color="#30d5c8" stop-opacity="1"></stop></linearGradient></defs><defs><linearGradient id="grad1_1" x1="43.8%" y1="0%" x2="100%" y2="100%"><stop offset="14.444444444444446%" stop-color="#30d5c8" stop-opacity="1"></stop><stop offset="85.55555555555554%" stop-color="#307f95" stop-opacity="1"></stop></linearGradient></defs><defs><linearGradient id="grad1_2" x1="43.8%" y1="0%" x2="100%" y2="100%"><stop offset="14.444444444444446%" stop-color="#2e343e" stop-opacity="1"></stop><stop offset="85.55555555555554%" stop-color="#307f95" stop-opacity="1"></stop></linearGradient></defs><defs><linearGradient id="grad2_0" x1="0%" y1="0%" x2="56.3%" y2="100%"><stop offset="14.444444444444446%" stop-color="#30d5c8" stop-opacity="1"></stop><stop offset="85.55555555555554%" stop-color="#30d5c8" stop-opacity="1"></stop></linearGradient></defs><defs><linearGradient id="grad2_1" x1="0%" y1="0%" x2="56.3%" y2="100%"><stop offset="14.444444444444446%" stop-color="#307f95" stop-opacity="1"></stop><stop offset="85.55555555555554%" stop-color="#30d5c8" stop-opacity="1"></stop></linearGradient></defs><defs><linearGradient id="grad2_2" x1="0%" y1="0%" x2="56.3%" y2="100%"><stop offset="14.444444444444446%" stop-color="#307f95" stop-opacity="1"></stop><stop offset="85.55555555555554%" stop-color="#2e343e" stop-opacity="1"></stop></linearGradient></defs><g transform="translate(1920, 0)"><path d="M0 756C-99.1 741.5 -198.3 727 -285.1 688.3C-371.9 649.6 -446.5 586.6 -518.3 518.3C-590.1 450.1 -659.3 376.6 -698.5 289.3C-737.6 202 -746.8 101 -756 0L0 0Z" fill="#38576c"></path><path d="M0 504C-66.1 494.3 -132.2 484.7 -190.1 458.9C-248 433 -297.6 391 -345.5 345.5C-393.4 300 -439.5 251 -465.6 192.9C-491.7 134.7 -497.9 67.3 -504 0L0 0Z" fill="#1caab6"></path><path d="M0 252C-33 247.2 -66.1 242.3 -95 229.4C-124 216.5 -148.8 195.5 -172.8 172.8C-196.7 150 -219.8 125.5 -232.8 96.4C-245.9 67.3 -248.9 33.7 -252 0L0 0Z" fill="#30d5c8"></path></g><g transform="translate(0, 1080)"><path d="M0 -756C89.9 -715.1 179.7 -674.3 262.5 -633.8C345.3 -593.3 421 -553.1 498.5 -498.5C576 -443.9 655.2 -374.8 698.5 -289.3C741.7 -203.8 748.8 -101.9 756 0L0 0Z" fill="#38576c"></path><path d="M0 -504C59.9 -476.8 119.8 -449.5 175 -422.5C230.2 -395.5 280.7 -368.8 332.3 -332.3C384 -295.9 436.8 -249.9 465.6 -192.9C494.4 -135.9 499.2 -67.9 504 0L0 0Z" fill="#1caab6"></path><path d="M0 -252C30 -238.4 59.9 -224.8 87.5 -211.3C115.1 -197.8 140.3 -184.4 166.2 -166.2C192 -148 218.4 -124.9 232.8 -96.4C247.2 -67.9 249.6 -34 252 0L0 0Z" fill="#30d5c8"></path></g></svg>