<svg id="visual" viewBox="0 0 960 540" width="960" height="540" xmlns="http://www.w3.org/2000/svg" xmlns:xlink="http://www.w3.org/1999/xlink" version="1.1"><path d="M0 109L26.7 103.7C53.3 98.3 106.7 87.7 160 93C213.3 98.3 266.7 119.7 320 131.3C373.3 143 426.7 145 480 144.2C533.3 143.3 586.7 139.7 640 137C693.3 134.3 746.7 132.7 800 128.2C853.3 123.7 906.7 116.3 933.3 112.7L960 109L960 0L933.3 0C906.7 0 853.3 0 800 0C746.7 0 693.3 0 640 0C586.7 0 533.3 0 480 0C426.7 0 373.3 0 320 0C266.7 0 213.3 0 160 0C106.7 0 53.3 0 26.7 0L0 0Z" fill="#2e343e"></path><path d="M0 174L26.7 173C53.3 172 106.7 170 160 183.5C213.3 197 266.7 226 320 230.5C373.3 235 426.7 215 480 204.2C533.3 193.3 586.7 191.7 640 200.7C693.3 209.7 746.7 229.3 800 231.2C853.3 233 906.7 217 933.3 209L960 201L960 107L933.3 110.7C906.7 114.3 853.3 121.7 800 126.2C746.7 130.7 693.3 132.3 640 135C586.7 137.7 533.3 141.3 480 142.2C426.7 143 373.3 141 320 129.3C266.7 117.7 213.3 96.3 160 91C106.7 85.7 53.3 96.3 26.7 101.7L0 107Z" fill="#347188"></path><path d="M0 239L26.7 237.2C53.3 235.3 106.7 231.7 160 241.5C213.3 251.3 266.7 274.7 320 279.2C373.3 283.7 426.7 269.3 480 256.7C533.3 244 586.7 233 640 239.3C693.3 245.7 746.7 269.3 800 270.3C853.3 271.3 906.7 249.7 933.3 238.8L960 228L960 199L933.3 207C906.7 215 853.3 231 800 229.2C746.7 227.3 693.3 207.7 640 198.7C586.7 189.7 533.3 191.3 480 202.2C426.7 213 373.3 233 320 228.5C266.7 224 213.3 195 160 181.5C106.7 168 53.3 170 26.7 171L0 172Z" fill="#1bb8bd"></path><path d="M0 276L26.7 273.3C53.3 270.7 106.7 265.3 160 275.3C213.3 285.3 266.7 310.7 320 317.8C373.3 325 426.7 314 480 302.3C533.3 290.7 586.7 278.3 640 281.2C693.3 284 746.7 302 800 302.8C853.3 303.7 906.7 287.3 933.3 279.2L960 271L960 226L933.3 236.8C906.7 247.7 853.3 269.3 800 268.3C746.7 267.3 693.3 243.7 640 237.3C586.7 231 533.3 242 480 254.7C426.7 267.3 373.3 281.7 320 277.2C266.7 272.7 213.3 249.3 160 239.5C106.7 229.7 53.3 233.3 26.7 235.2L0 237Z" fill="#30d5c8"></path><path d="M0 314L26.7 315.8C53.3 317.7 106.7 321.3 160 334C213.3 346.7 266.7 368.3 320 370.2C373.3 372 426.7 354 480 338.7C533.3 323.3 586.7 310.7 640 318.7C693.3 326.7 746.7 355.3 800 357.2C853.3 359 906.7 334 933.3 321.5L960 309L960 269L933.3 277.2C906.7 285.3 853.3 301.7 800 300.8C746.7 300 693.3 282 640 279.2C586.7 276.3 533.3 288.7 480 300.3C426.7 312 373.3 323 320 315.8C266.7 308.7 213.3 283.3 160 273.3C106.7 263.3 53.3 268.7 26.7 271.3L0 274Z" fill="#1bb8bd"></path><path d="M0 357L26.7 362.5C53.3 368 106.7 379 160 391.7C213.3 404.3 266.7 418.7 320 424C373.3 429.3 426.7 425.7 480 410.3C533.3 395 586.7 368 640 368C693.3 368 746.7 395 800 398.7C853.3 402.3 906.7 382.7 933.3 372.8L960 363L960 307L933.3 319.5C906.7 332 853.3 357 800 355.2C746.7 353.3 693.3 324.7 640 316.7C586.7 308.7 533.3 321.3 480 336.7C426.7 352 373.3 370 320 368.2C266.7 366.3 213.3 344.7 160 332C106.7 319.3 53.3 315.7 26.7 313.8L0 312Z" fill="#347188"></path><path d="M0 541L26.7 541C53.3 541 106.7 541 160 541C213.3 541 266.7 541 320 541C373.3 541 426.7 541 480 541C533.3 541 586.7 541 640 541C693.3 541 746.7 541 800 541C853.3 541 906.7 541 933.3 541L960 541L960 361L933.3 370.8C906.7 380.7 853.3 400.3 800 396.7C746.7 393 693.3 366 640 366C586.7 366 533.3 393 480 408.3C426.7 423.7 373.3 427.3 320 422C266.7 416.7 213.3 402.3 160 389.7C106.7 377 53.3 366 26.7 360.5L0 355Z" fill="#2e343e"></path></svg>