<svg id="visual" viewBox="0 0 900 450" width="900" height="450" xmlns="http://www.w3.org/2000/svg" xmlns:xlink="http://www.w3.org/1999/xlink" version="1.1"><rect x="0" y="0" width="900" height="450" fill="#2e343e"></rect><defs><linearGradient id="grad1_0" x1="50%" y1="100%" x2="100%" y2="0%"><stop offset="10%" stop-color="#30d5c8" stop-opacity="1"></stop><stop offset="90%" stop-color="#30d5c8" stop-opacity="1"></stop></linearGradient></defs><defs><linearGradient id="grad1_1" x1="50%" y1="100%" x2="100%" y2="0%"><stop offset="10%" stop-color="#30d5c8" stop-opacity="1"></stop><stop offset="90%" stop-color="#307f95" stop-opacity="1"></stop></linearGradient></defs><defs><linearGradient id="grad1_2" x1="50%" y1="100%" x2="100%" y2="0%"><stop offset="10%" stop-color="#2e343e" stop-opacity="1"></stop><stop offset="90%" stop-color="#307f95" stop-opacity="1"></stop></linearGradient></defs><defs><linearGradient id="grad2_0" x1="0%" y1="100%" x2="50%" y2="0%"><stop offset="10%" stop-color="#30d5c8" stop-opacity="1"></stop><stop offset="90%" stop-color="#30d5c8" stop-opacity="1"></stop></linearGradient></defs><defs><linearGradient id="grad2_1" x1="0%" y1="100%" x2="50%" y2="0%"><stop offset="10%" stop-color="#307f95" stop-opacity="1"></stop><stop offset="90%" stop-color="#30d5c8" stop-opacity="1"></stop></linearGradient></defs><defs><linearGradient id="grad2_2" x1="0%" y1="100%" x2="50%" y2="0%"><stop offset="10%" stop-color="#307f95" stop-opacity="1"></stop><stop offset="90%" stop-color="#2e343e" stop-opacity="1"></stop></linearGradient></defs><g transform="translate(900, 450)"><path d="M-337.5 0C-330.1 -35.2 -322.6 -70.3 -309.1 -100.4C-295.5 -130.5 -275.9 -155.5 -258.9 -188.1C-241.9 -220.7 -227.6 -260.8 -198.4 -273C-169.2 -285.3 -125.2 -269.7 -89.6 -275.8C-54.1 -281.9 -27 -309.7 0 -337.5L0 0Z" fill="#38576c"></path><path d="M-225 0C-220 -23.4 -215.1 -46.9 -206.1 -67C-197 -87 -183.9 -103.7 -172.6 -125.4C-161.3 -147.1 -151.7 -173.9 -132.3 -182C-112.8 -190.2 -83.4 -179.8 -59.7 -183.9C-36.1 -187.9 -18 -206.5 0 -225L0 0Z" fill="#1caab6"></path><path d="M-112.5 0C-110 -11.7 -107.5 -23.4 -103 -33.5C-98.5 -43.5 -92 -51.8 -86.3 -62.7C-80.6 -73.6 -75.9 -86.9 -66.1 -91C-56.4 -95.1 -41.7 -89.9 -29.9 -91.9C-18 -94 -9 -103.2 0 -112.5L0 0Z" fill="#30d5c8"></path></g><g transform="translate(0, 0)"><path d="M337.5 0C336.6 38.2 335.6 76.4 316.7 102.9C297.8 129.4 260.8 144.2 241.9 175.7C222.9 207.3 222 255.7 198.4 273C174.8 290.4 128.6 276.9 91.8 282.5C54.9 288 27.5 312.8 0 337.5L0 0Z" fill="#38576c"></path><path d="M225 0C224.4 25.5 223.8 50.9 211.1 68.6C198.5 86.3 173.9 96.1 161.3 117.2C148.6 138.2 148 170.4 132.3 182C116.5 193.6 85.7 184.6 61.2 188.3C36.6 192 18.3 208.5 0 225L0 0Z" fill="#1caab6"></path><path d="M112.5 0C112.2 12.7 111.9 25.5 105.6 34.3C99.3 43.1 86.9 48.1 80.6 58.6C74.3 69.1 74 85.2 66.1 91C58.3 96.8 42.9 92.3 30.6 94.2C18.3 96 9.2 104.3 0 112.5L0 0Z" fill="#30d5c8"></path></g></svg>