<svg id="visual" viewBox="0 0 960 540" width="960" height="540" xmlns="http://www.w3.org/2000/svg" xmlns:xlink="http://www.w3.org/1999/xlink" version="1.1"><rect width="960" height="540" fill="#2e343e"></rect><g><g transform="translate(929 216)"><path d="M0 -144L124.7 -72L124.7 72L0 144L-124.7 72L-124.7 -72Z" fill="none" stroke="#30d5c8" stroke-width="5"></path></g><g transform="translate(68 300)"><path d="M0 -117L101.3 -58.5L101.3 58.5L0 117L-101.3 58.5L-101.3 -58.5Z" fill="none" stroke="#30d5c8" stroke-width="5"></path></g><g transform="translate(557 138)"><path d="M0 -92L79.7 -46L79.7 46L0 92L-79.7 46L-79.7 -46Z" fill="none" stroke="#30d5c8" stroke-width="5"></path></g><g transform="translate(354 350)"><path d="M0 -122L105.7 -61L105.7 61L0 122L-105.7 61L-105.7 -61Z" stroke="#30d5c8" fill="none" stroke-width="5"></path></g><g transform="translate(672 426)"><path d="M0 -58L50.2 -29L50.2 29L0 58L-50.2 29L-50.2 -29Z" stroke="#30d5c8" fill="none" stroke-width="5"></path></g></g></svg>