<svg id="visual" viewBox="0 0 960 540" width="960" height="540" xmlns="http://www.w3.org/2000/svg" xmlns:xlink="http://www.w3.org/1999/xlink" version="1.1"><rect x="0" y="0" width="960" height="540" fill="#2e343e"></rect><defs><linearGradient id="grad1_0" x1="43.8%" y1="0%" x2="100%" y2="100%"><stop offset="14.444444444444446%" stop-color="#30d5c8" stop-opacity="1"></stop><stop offset="85.55555555555554%" stop-color="#30d5c8" stop-opacity="1"></stop></linearGradient></defs><defs><linearGradient id="grad1_1" x1="43.8%" y1="0%" x2="100%" y2="100%"><stop offset="14.444444444444446%" stop-color="#30d5c8" stop-opacity="1"></stop><stop offset="85.55555555555554%" stop-color="#307f95" stop-opacity="1"></stop></linearGradient></defs><defs><linearGradient id="grad1_2" x1="43.8%" y1="0%" x2="100%" y2="100%"><stop offset="14.444444444444446%" stop-color="#2e343e" stop-opacity="1"></stop><stop offset="85.55555555555554%" stop-color="#307f95" stop-opacity="1"></stop></linearGradient></defs><defs><linearGradient id="grad2_0" x1="0%" y1="0%" x2="56.3%" y2="100%"><stop offset="14.444444444444446%" stop-color="#30d5c8" stop-opacity="1"></stop><stop offset="85.55555555555554%" stop-color="#30d5c8" stop-opacity="1"></stop></linearGradient></defs><defs><linearGradient id="grad2_1" x1="0%" y1="0%" x2="56.3%" y2="100%"><stop offset="14.444444444444446%" stop-color="#307f95" stop-opacity="1"></stop><stop offset="85.55555555555554%" stop-color="#30d5c8" stop-opacity="1"></stop></linearGradient></defs><defs><linearGradient id="grad2_2" x1="0%" y1="0%" x2="56.3%" y2="100%"><stop offset="14.444444444444446%" stop-color="#307f95" stop-opacity="1"></stop><stop offset="85.55555555555554%" stop-color="#2e343e" stop-opacity="1"></stop></linearGradient></defs><g transform="translate(960, 0)"><path d="M0 270C-50.3 264.7 -100.6 259.4 -135 233.8C-169.4 208.2 -188 162.4 -207.8 120C-227.7 77.6 -248.9 38.8 -270 0L0 0Z" fill="#38576c"></path><path d="M0 180C-33.5 176.5 -67 172.9 -90 155.9C-113 138.8 -125.3 108.2 -138.6 80C-151.8 51.8 -165.9 25.9 -180 0L0 0Z" fill="#1caab6"></path><path d="M0 90C-16.8 88.2 -33.5 86.5 -45 77.9C-56.5 69.4 -62.7 54.1 -69.3 40C-75.9 25.9 -83 12.9 -90 0L0 0Z" fill="#30d5c8"></path></g><g transform="translate(0, 540)"><path d="M0 -270C37.5 -246.5 75 -223.1 117.5 -203.5C160 -183.9 207.6 -168.3 233.8 -135C260.1 -101.7 265 -50.9 270 0L0 0Z" fill="#38576c"></path><path d="M0 -180C25 -164.4 50 -148.7 78.3 -135.7C106.7 -122.6 138.4 -112.2 155.9 -90C173.4 -67.8 176.7 -33.9 180 0L0 0Z" fill="#1caab6"></path><path d="M0 -90C12.5 -82.2 25 -74.4 39.2 -67.8C53.3 -61.3 69.2 -56.1 77.9 -45C86.7 -33.9 88.3 -17 90 0L0 0Z" fill="#30d5c8"></path></g></svg>