<svg id="visual" viewBox="0 0 1920 1080" width="1920" height="1080" xmlns="http://www.w3.org/2000/svg" xmlns:xlink="http://www.w3.org/1999/xlink" version="1.1"><rect x="0" y="0" width="1920" height="1080" fill="#2e343e"></rect><defs><linearGradient id="grad1_0" x1="43.8%" y1="100%" x2="100%" y2="0%"><stop offset="14.444444444444446%" stop-color="#30d5c8" stop-opacity="1"></stop><stop offset="85.55555555555554%" stop-color="#30d5c8" stop-opacity="1"></stop></linearGradient></defs><defs><linearGradient id="grad1_1" x1="43.8%" y1="100%" x2="100%" y2="0%"><stop offset="14.444444444444446%" stop-color="#30d5c8" stop-opacity="1"></stop><stop offset="85.55555555555554%" stop-color="#307f95" stop-opacity="1"></stop></linearGradient></defs><defs><linearGradient id="grad1_2" x1="43.8%" y1="100%" x2="100%" y2="0%"><stop offset="14.444444444444446%" stop-color="#2e343e" stop-opacity="1"></stop><stop offset="85.55555555555554%" stop-color="#307f95" stop-opacity="1"></stop></linearGradient></defs><defs><linearGradient id="grad2_0" x1="0%" y1="100%" x2="56.3%" y2="0%"><stop offset="14.444444444444446%" stop-color="#30d5c8" stop-opacity="1"></stop><stop offset="85.55555555555554%" stop-color="#30d5c8" stop-opacity="1"></stop></linearGradient></defs><defs><linearGradient id="grad2_1" x1="0%" y1="100%" x2="56.3%" y2="0%"><stop offset="14.444444444444446%" stop-color="#307f95" stop-opacity="1"></stop><stop offset="85.55555555555554%" stop-color="#30d5c8" stop-opacity="1"></stop></linearGradient></defs><defs><linearGradient id="grad2_2" x1="0%" y1="100%" x2="56.3%" y2="0%"><stop offset="14.444444444444446%" stop-color="#307f95" stop-opacity="1"></stop><stop offset="85.55555555555554%" stop-color="#2e343e" stop-opacity="1"></stop></linearGradient></defs><g transform="translate(1920, 1080)"><path d="M-756 0C-741.5 -99.1 -727 -198.3 -688.3 -285.1C-649.6 -371.9 -586.6 -446.5 -518.3 -518.3C-450.1 -590.1 -376.6 -659.3 -289.3 -698.5C-202 -737.6 -101 -746.8 0 -756L0 0Z" fill="#38576c"></path><path d="M-504 0C-494.3 -66.1 -484.7 -132.2 -458.9 -190.1C-433 -248 -391 -297.6 -345.5 -345.5C-300 -393.4 -251 -439.5 -192.9 -465.6C-134.7 -491.7 -67.3 -497.9 0 -504L0 0Z" fill="#1caab6"></path><path d="M-252 0C-247.2 -33 -242.3 -66.1 -229.4 -95C-216.5 -124 -195.5 -148.8 -172.8 -172.8C-150 -196.7 -125.5 -219.8 -96.4 -232.8C-67.3 -245.9 -33.7 -248.9 0 -252L0 0Z" fill="#30d5c8"></path></g><g transform="translate(0, 0)"><path d="M756 0C715.1 89.9 674.3 179.7 633.8 262.5C593.3 345.3 553.1 421 498.5 498.5C443.9 576 374.8 655.2 289.3 698.5C203.8 741.7 101.9 748.8 0 756L0 0Z" fill="#38576c"></path><path d="M504 0C476.8 59.9 449.5 119.8 422.5 175C395.5 230.2 368.8 280.7 332.3 332.3C295.9 384 249.9 436.8 192.9 465.6C135.9 494.4 67.9 499.2 0 504L0 0Z" fill="#1caab6"></path><path d="M252 0C238.4 30 224.8 59.9 211.3 87.5C197.8 115.1 184.4 140.3 166.2 166.2C148 192 124.9 218.4 96.4 232.8C67.9 247.2 34 249.6 0 252L0 0Z" fill="#30d5c8"></path></g></svg>