<svg id="visual" viewBox="0 0 900 450" width="900" height="450" xmlns="http://www.w3.org/2000/svg" xmlns:xlink="http://www.w3.org/1999/xlink" version="1.1"><rect x="0" y="0" width="900" height="450" fill="#2e343e"></rect><defs><linearGradient id="grad1_0" x1="50%" y1="0%" x2="100%" y2="100%"><stop offset="10%" stop-color="#30d5c8" stop-opacity="1"></stop><stop offset="90%" stop-color="#30d5c8" stop-opacity="1"></stop></linearGradient></defs><defs><linearGradient id="grad1_1" x1="50%" y1="0%" x2="100%" y2="100%"><stop offset="10%" stop-color="#30d5c8" stop-opacity="1"></stop><stop offset="90%" stop-color="#307f95" stop-opacity="1"></stop></linearGradient></defs><defs><linearGradient id="grad1_2" x1="50%" y1="0%" x2="100%" y2="100%"><stop offset="10%" stop-color="#2e343e" stop-opacity="1"></stop><stop offset="90%" stop-color="#307f95" stop-opacity="1"></stop></linearGradient></defs><defs><linearGradient id="grad2_0" x1="0%" y1="0%" x2="50%" y2="100%"><stop offset="10%" stop-color="#30d5c8" stop-opacity="1"></stop><stop offset="90%" stop-color="#30d5c8" stop-opacity="1"></stop></linearGradient></defs><defs><linearGradient id="grad2_1" x1="0%" y1="0%" x2="50%" y2="100%"><stop offset="10%" stop-color="#307f95" stop-opacity="1"></stop><stop offset="90%" stop-color="#30d5c8" stop-opacity="1"></stop></linearGradient></defs><defs><linearGradient id="grad2_2" x1="0%" y1="0%" x2="50%" y2="100%"><stop offset="10%" stop-color="#307f95" stop-opacity="1"></stop><stop offset="90%" stop-color="#2e343e" stop-opacity="1"></stop></linearGradient></defs><g transform="translate(900, 0)"><path d="M0 247.5C-38 232.3 -76 217 -114.5 198.3C-153 179.6 -192.1 157.4 -214.3 123.8C-236.6 90.1 -242 45.1 -247.5 0L0 0Z" fill="#38576c"></path><path d="M0 165C-25.3 154.8 -50.7 144.7 -76.3 132.2C-102 119.7 -128.1 104.9 -142.9 82.5C-157.7 60.1 -161.4 30 -165 0L0 0Z" fill="#1caab6"></path><path d="M0 82.5C-12.7 77.4 -25.3 72.3 -38.2 66.1C-51 59.9 -64 52.5 -71.4 41.3C-78.9 30 -80.7 15 -82.5 0L0 0Z" fill="#30d5c8"></path></g><g transform="translate(0, 450)"><path d="M0 -247.5C38 -232.3 76 -217 114.5 -198.3C153 -179.6 192.1 -157.4 214.3 -123.8C236.6 -90.1 242 -45.1 247.5 0L0 0Z" fill="#38576c"></path><path d="M0 -165C25.3 -154.8 50.7 -144.7 76.3 -132.2C102 -119.7 128.1 -104.9 142.9 -82.5C157.7 -60.1 161.4 -30 165 0L0 0Z" fill="#1caab6"></path><path d="M0 -82.5C12.7 -77.4 25.3 -72.3 38.2 -66.1C51 -59.9 64 -52.5 71.4 -41.3C78.9 -30 80.7 -15 82.5 0L0 0Z" fill="#30d5c8"></path></g></svg>