<svg id="visual" viewBox="0 0 900 450" width="900" height="450" xmlns="http://www.w3.org/2000/svg" xmlns:xlink="http://www.w3.org/1999/xlink" version="1.1"><rect x="0" y="0" width="900" height="450" fill="#2e343e"></rect><defs><linearGradient id="grad1_0" x1="50%" y1="0%" x2="100%" y2="100%"><stop offset="10%" stop-color="#30d5c8" stop-opacity="1"></stop><stop offset="90%" stop-color="#30d5c8" stop-opacity="1"></stop></linearGradient></defs><defs><linearGradient id="grad1_1" x1="50%" y1="0%" x2="100%" y2="100%"><stop offset="10%" stop-color="#30d5c8" stop-opacity="1"></stop><stop offset="90%" stop-color="#307f95" stop-opacity="1"></stop></linearGradient></defs><defs><linearGradient id="grad1_2" x1="50%" y1="0%" x2="100%" y2="100%"><stop offset="10%" stop-color="#2e343e" stop-opacity="1"></stop><stop offset="90%" stop-color="#307f95" stop-opacity="1"></stop></linearGradient></defs><defs><linearGradient id="grad2_0" x1="0%" y1="0%" x2="50%" y2="100%"><stop offset="10%" stop-color="#30d5c8" stop-opacity="1"></stop><stop offset="90%" stop-color="#30d5c8" stop-opacity="1"></stop></linearGradient></defs><defs><linearGradient id="grad2_1" x1="0%" y1="0%" x2="50%" y2="100%"><stop offset="10%" stop-color="#307f95" stop-opacity="1"></stop><stop offset="90%" stop-color="#30d5c8" stop-opacity="1"></stop></linearGradient></defs><defs><linearGradient id="grad2_2" x1="0%" y1="0%" x2="50%" y2="100%"><stop offset="10%" stop-color="#307f95" stop-opacity="1"></stop><stop offset="90%" stop-color="#2e343e" stop-opacity="1"></stop></linearGradient></defs><g transform="translate(900, 0)"><path d="M0 337.5C-35.2 330.1 -70.3 322.6 -100.4 309.1C-130.5 295.5 -155.5 275.9 -188.1 258.9C-220.7 241.9 -260.8 227.6 -273 198.4C-285.3 169.2 -269.7 125.2 -275.8 89.6C-281.9 54.1 -309.7 27 -337.5 0L0 0Z" fill="#38576c"></path><path d="M0 225C-23.4 220 -46.9 215.1 -67 206.1C-87 197 -103.7 183.9 -125.4 172.6C-147.1 161.3 -173.9 151.7 -182 132.3C-190.2 112.8 -179.8 83.4 -183.9 59.7C-187.9 36.1 -206.5 18 -225 0L0 0Z" fill="#1caab6"></path><path d="M0 112.5C-11.7 110 -23.4 107.5 -33.5 103C-43.5 98.5 -51.8 92 -62.7 86.3C-73.6 80.6 -86.9 75.9 -91 66.1C-95.1 56.4 -89.9 41.7 -91.9 29.9C-94 18 -103.2 9 -112.5 0L0 0Z" fill="#30d5c8"></path></g><g transform="translate(0, 450)"><path d="M0 -337.5C38.2 -336.6 76.4 -335.6 102.9 -316.7C129.4 -297.8 144.2 -260.8 175.7 -241.9C207.3 -222.9 255.7 -222 273 -198.4C290.4 -174.8 276.9 -128.6 282.5 -91.8C288 -54.9 312.8 -27.5 337.5 0L0 0Z" fill="#38576c"></path><path d="M0 -225C25.5 -224.4 50.9 -223.8 68.6 -211.1C86.3 -198.5 96.1 -173.9 117.2 -161.3C138.2 -148.6 170.4 -148 182 -132.3C193.6 -116.5 184.6 -85.7 188.3 -61.2C192 -36.6 208.5 -18.3 225 0L0 0Z" fill="#1caab6"></path><path d="M0 -112.5C12.7 -112.2 25.5 -111.9 34.3 -105.6C43.1 -99.3 48.1 -86.9 58.6 -80.6C69.1 -74.3 85.2 -74 91 -66.1C96.8 -58.3 92.3 -42.9 94.2 -30.6C96 -18.3 104.3 -9.2 112.5 0L0 0Z" fill="#30d5c8"></path></g></svg>